<svg width="15" height="3" viewBox="0 0 15 3" fill="none" xmlns="http://www.w3.org/2000/svg">
<path d="M1.46739 2.93478C2.25 2.93478 2.93478 2.25 2.93478 1.46739C2.93478 0.684783 2.25 0 1.46739 0C0.684783 0 0 0.684783 0 1.46739C0 2.25 0.684783 2.93478 1.46739 2.93478Z" fill="#0A0C29"/>
<path d="M7.33653 2.93478C8.11914 2.93478 8.80392 2.25 8.80392 1.46739C8.80392 0.684783 8.11914 0 7.33653 0C6.55392 0 5.86914 0.684783 5.86914 1.46739C5.86914 2.25 6.55392 2.93478 7.33653 2.93478Z" fill="#0A0C29"/>
<path d="M13.2065 2.93484C13.9891 2.93484 14.6739 2.25006 14.6739 1.46745C14.6739 0.684844 13.9891 6.10352e-05 13.2065 6.10352e-05C12.4239 6.10352e-05 11.7391 0.684844 11.7391 1.46745C11.7391 2.25006 12.4239 2.93484 13.2065 2.93484Z" fill="#0A0C29"/>
</svg>
