<svg width="10" height="10" viewBox="0 0 10 10" fill="none" xmlns="http://www.w3.org/2000/svg">
<path d="M5.00004 9.16666C2.69885 9.16666 0.833374 7.30116 0.833374 5C0.833374 3.83644 1.31031 2.78427 2.07936 2.02834M5.00004 9.16666C4.59879 8.86933 4.66283 8.52312 4.86412 8.17695C5.17363 7.64475 5.17362 7.64475 5.17362 6.93516C5.17362 6.22558 5.59529 5.89287 7.08338 6.19045C7.752 6.3242 8.23925 5.40037 9.10725 5.70541M5.00004 9.16666C7.06079 9.16666 8.77213 7.67066 9.10725 5.70541M2.07936 2.02834C2.43323 2.06568 2.63136 2.25526 2.96044 2.60298C3.58521 3.26313 4.20996 3.31821 4.6265 3.09816C5.25125 2.76809 4.72625 2.23345 5.4595 1.9429C5.90904 1.76479 5.99471 1.29832 5.78196 0.906574M2.07936 2.02834C2.83127 1.28925 3.86241 0.833328 5.00004 0.833328C5.26729 0.833328 5.52867 0.858491 5.78196 0.906574M9.10725 5.70541C9.14633 5.47612 9.16671 5.24045 9.16671 5C9.16671 2.96607 7.70938 1.27252 5.78196 0.906574" stroke="#616B80" stroke-linejoin="round"/>
</svg>
