<svg width="20" height="20" viewBox="0 0 20 20" fill="none" xmlns="http://www.w3.org/2000/svg">
<path d="M3.66054 3.33405C3.33331 3.84664 3.33331 4.50971 3.33331 5.83586V14.1642C3.33331 15.4902 3.33331 16.1533 3.66054 16.6659C3.71897 16.7575 3.78448 16.8443 3.85645 16.9257C4.25951 17.381 4.8972 17.5632 6.17256 17.9275C7.45115 18.2927 8.09045 18.4753 8.55331 18.2014C8.63365 18.1539 8.70831 18.0976 8.77606 18.0335C9.16665 17.6637 9.16665 16.999 9.16665 15.6695V4.33051C9.16665 3.00101 9.16665 2.33625 8.77606 1.96651C8.70831 1.9024 8.63365 1.84605 8.55331 1.79855C8.09045 1.52463 7.45115 1.70725 6.17256 2.07249C4.8972 2.43681 4.25951 2.61898 3.85645 3.07437C3.78448 3.1557 3.71897 3.24252 3.66054 3.33405Z" stroke="#0D0D0D" stroke-width="1.25" stroke-linecap="round" stroke-linejoin="round"/>
<path d="M9.16669 3.33334H10.8476C12.4324 3.33334 13.2247 3.33334 13.717 3.82149C13.9915 4.09365 14.1129 4.45829 14.1667 5M9.16669 16.6667H10.8476C12.4324 16.6667 13.2247 16.6667 13.717 16.1785C13.9915 15.9063 14.1129 15.5418 14.1667 15" stroke="#0D0D0D" stroke-width="1.25" stroke-linecap="round" stroke-linejoin="round"/>
<path d="M17.5 10H11.6667M16.25 7.91666C16.25 7.91666 18.3334 9.45105 18.3334 10C18.3334 10.549 16.25 12.0833 16.25 12.0833" stroke="#0D0D0D" stroke-width="1.25" stroke-linecap="round" stroke-linejoin="round"/>
</svg>
