<svg width="17" height="17" viewBox="0 0 17 17" fill="none" xmlns="http://www.w3.org/2000/svg">
<path d="M10.625 10.625L11.6875 11.6875" stroke="#616B80" stroke-width="1.5" stroke-linecap="round" stroke-linejoin="round"/>
<path d="M11.9944 13.4762C11.5852 13.067 11.5852 12.4036 11.9944 11.9944C12.4036 11.5852 13.067 11.5852 13.4762 11.9944L14.9223 13.4405C15.3315 13.8497 15.3315 14.5131 14.9223 14.9222C14.5131 15.3314 13.8497 15.3314 13.4405 14.9222L11.9944 13.4762Z" stroke="#616B80" stroke-width="1.5" stroke-linecap="round" stroke-linejoin="round"/>
<path d="M11.6875 6.72916C11.6875 3.99075 9.4676 1.77083 6.72918 1.77083C3.99077 1.77083 1.77084 3.99075 1.77084 6.72916C1.77084 9.46758 3.99077 11.6875 6.72918 11.6875C9.4676 11.6875 11.6875 9.46758 11.6875 6.72916Z" stroke="#616B80" stroke-width="1.5" stroke-linecap="round" stroke-linejoin="round"/>
</svg>
