<svg width="110" height="29" viewBox="0 0 110 29" fill="none" xmlns="http://www.w3.org/2000/svg">
<g clip-path="url(#clip0_24_210)">
<path d="M5.99996 2.5H12.8774C13.6787 2.5 14.4317 2.81203 14.9985 3.3789L20.1211 8.49997C20.688 9.06685 21 9.81979 21 10.6211V23.5C21 25.1545 19.6545 26.4999 18 26.4999H6.00001C4.34545 26.4999 3.00002 25.1545 3.00002 23.5V5.49999C2.99997 3.84547 4.34545 2.5 5.99996 2.5Z" fill="#4F46E5"/>
</g>
<path d="M35.256 23.26C29.926 23.26 26.65 19.724 26.65 14.29C26.65 8.856 30.342 5.32 36.322 5.32C41.782 5.32 45.24 7.868 45.24 12.054V12.262H40.898V12.054C40.898 10.026 39.572 9.064 36.218 9.064C32.266 9.064 30.784 10.416 30.784 14.29C30.784 18.164 32.214 19.516 36.036 19.516C40.04 19.516 41.262 18.892 41.366 16.682H35.464V13.796H45.266V23H41.652V19.256H41.444C40.846 21.544 39.026 23.26 35.256 23.26ZM54.1168 23.26C49.6708 23.26 46.6808 20.608 46.6808 16.5C46.6808 12.34 49.6708 9.714 54.1168 9.714C58.5628 9.714 61.5528 12.34 61.5528 16.5C61.5528 20.608 58.5628 23.26 54.1168 23.26ZM54.1168 19.802C56.7428 19.802 57.6788 18.788 57.6788 16.5C57.6788 14.212 56.7428 13.146 54.1168 13.146C51.4648 13.146 50.5548 14.212 50.5548 16.5C50.5548 18.788 51.4648 19.802 54.1168 19.802ZM71.0495 23.26C65.7715 23.26 62.8075 21.18 62.8075 17.124V16.968H66.7075V17.436C66.7075 19.048 67.5135 19.698 71.0495 19.698C74.1695 19.698 74.8975 19.23 74.8975 18.06C74.8975 16.994 74.2995 16.604 72.5055 16.292L67.6175 15.59C64.4975 15.096 62.6515 13.536 62.6515 10.702C62.6515 8.076 64.7835 5.32 70.6335 5.32C75.9895 5.32 78.4855 7.79 78.4855 11.456V11.612H74.5595V11.248C74.5595 9.584 73.7015 8.882 70.2435 8.882C67.4355 8.882 66.5775 9.428 66.5775 10.546C66.5775 11.56 67.1495 11.924 68.6055 12.184L73.4935 12.964C77.3935 13.588 78.7975 15.486 78.7975 17.878C78.7975 20.712 76.5875 23.26 71.0495 23.26ZM84.2857 23H80.3857V5.58H84.2857V23ZM90.2271 23H86.3271V5.58H91.6051L95.6871 14.16L97.3251 18.242H97.6111L99.1971 14.16L103.149 5.58H108.453V23H104.553V14.16L104.683 11.43H104.397L103.383 14.16L99.7431 21.96H95.0111L91.3711 14.16L90.3571 11.43H90.0711L90.2271 14.16V23Z" fill="white"/>
<defs>
<clipPath id="clip0_24_210">
<rect width="24" height="24" fill="white" transform="matrix(-1 0 0 1 24 2.5)"/>
</clipPath>
</defs>
</svg>
