<svg width="23" height="23" viewBox="0 0 23 23" fill="none" xmlns="http://www.w3.org/2000/svg">
<g clip-path="url(#clip0_81_2233)">
<path d="M11.5 23C17.8513 23 23 17.8513 23 11.5C23 5.14873 17.8513 0 11.5 0C5.14873 0 0 5.14873 0 11.5C0 17.8513 5.14873 23 11.5 23Z" fill="#F0F0F0"/>
<path d="M2.3771 4.49878C1.47376 5.67407 0.792611 7.02869 0.395996 8.50029H6.3786L2.3771 4.49878Z" fill="#0052B4"/>
<path d="M22.6036 8.50048C22.207 7.02893 21.5258 5.67431 20.6225 4.49902L16.6211 8.50048H22.6036Z" fill="#0052B4"/>
<path d="M0.395996 14.5C0.792656 15.9716 1.47381 17.3262 2.3771 18.5014L6.37847 14.5H0.395996Z" fill="#0052B4"/>
<path d="M18.5012 2.37763C17.3259 1.4743 15.9714 0.793145 14.4998 0.396484V6.37905L18.5012 2.37763Z" fill="#0052B4"/>
<path d="M4.49854 20.6234C5.67383 21.5268 7.02845 22.2079 8.5 22.6046V16.6221L4.49854 20.6234Z" fill="#0052B4"/>
<path d="M8.49971 0.396484C7.02816 0.793145 5.67354 1.47429 4.49829 2.37758L8.49971 6.379V0.396484Z" fill="#0052B4"/>
<path d="M14.5 22.6046C15.9716 22.2079 17.3262 21.5268 18.5014 20.6235L14.5 16.6221V22.6046Z" fill="#0052B4"/>
<path d="M16.6211 14.5L20.6225 18.5015C21.5258 17.3262 22.207 15.9716 22.6036 14.5H16.6211Z" fill="#0052B4"/>
<path d="M22.9027 10H13.0001H13V0.0973457C12.509 0.0334219 12.0084 0 11.5 0C10.9915 0 10.491 0.0334219 10 0.0973457V9.99992V9.99997H0.0973457C0.0334219 10.491 0 10.9916 0 11.5C0 12.0085 0.0334219 12.509 0.0973457 13H9.99992H9.99997V22.9027C10.491 22.9666 10.9915 23 11.5 23C12.0084 23 12.509 22.9666 13 22.9027V13.0001V13H22.9027C22.9666 12.509 23 12.0085 23 11.5C23 10.9916 22.9666 10.491 22.9027 10Z" fill="#D80027"/>
<path d="M14.5 14.5L19.6317 19.6317C19.8677 19.3958 20.0929 19.1491 20.3077 18.8934L15.9142 14.5H14.5V14.5Z" fill="#D80027"/>
<path d="M8.4999 14.5H8.49981L3.36816 19.6317C3.60409 19.8677 3.85076 20.0928 4.10645 20.3076L8.4999 15.9141V14.5Z" fill="#D80027"/>
<path d="M8.50006 8.49999V8.4999L3.36837 3.36816C3.13235 3.60409 2.9072 3.85076 2.69238 4.10645L7.08588 8.49995L8.50006 8.49999Z" fill="#D80027"/>
<path d="M14.5 8.50011L19.6317 3.36832C19.3958 3.1323 19.1491 2.90715 18.8934 2.69238L14.5 7.08588V8.50011Z" fill="#D80027"/>
</g>
<defs>
<clipPath id="clip0_81_2233">
<rect width="23" height="23" fill="white"/>
</clipPath>
</defs>
</svg>
